<svg xmlns="http://www.w3.org/2000/svg" xmlns:xlink="http://www.w3.org/1999/xlink" width="1920" zoomAndPan="magnify" viewBox="0 0 1440 809.999993" height="1080" preserveAspectRatio="xMidYMid meet" version="1.0"><path fill="#ffffff" d="M 1172.960938 381.953125 L 314.746094 90.738281 C 313.738281 90.394531 312.71875 90.085938 311.691406 89.804688 C 310.664062 89.523438 309.625 89.273438 308.582031 89.058594 C 307.539062 88.839844 306.492188 88.65625 305.433594 88.503906 C 304.378906 88.351562 303.320312 88.230469 302.261719 88.140625 C 301.199219 88.050781 300.132812 87.996094 299.070312 87.972656 C 298.003906 87.949219 296.9375 87.957031 295.871094 87.996094 C 294.808594 88.039062 293.746094 88.113281 292.683594 88.21875 C 291.625 88.324219 290.566406 88.460938 289.515625 88.632812 C 288.464844 88.800781 287.417969 89.003906 286.378906 89.238281 C 285.335938 89.472656 284.304688 89.738281 283.28125 90.035156 C 282.257812 90.332031 281.246094 90.660156 280.242188 91.019531 C 279.238281 91.375 278.246094 91.765625 277.265625 92.183594 C 276.285156 92.601562 275.320312 93.050781 274.367188 93.53125 C 273.414062 94.007812 272.476562 94.515625 271.558594 95.050781 C 270.636719 95.585938 269.730469 96.148438 268.84375 96.738281 C 267.957031 97.328125 267.089844 97.941406 266.238281 98.585938 C 265.390625 99.230469 264.558594 99.898438 263.75 100.589844 C 262.941406 101.285156 262.15625 102.003906 261.390625 102.742188 C 260.625 103.484375 259.882812 104.25 259.164062 105.035156 C 258.449219 105.824219 257.753906 106.628906 257.085938 107.460938 C 256.414062 108.289062 255.773438 109.136719 255.15625 110.003906 C 254.539062 110.875 253.949219 111.757812 253.386719 112.664062 C 252.820312 113.566406 252.285156 114.488281 251.78125 115.425781 C 251.273438 116.359375 250.796875 117.3125 250.347656 118.277344 C 249.898438 119.242188 249.476562 120.222656 249.089844 121.214844 C 248.699219 122.207031 248.339844 123.207031 248.011719 124.222656 C 247.6875 125.234375 247.390625 126.257812 247.125 127.289062 C 246.859375 128.320312 246.625 129.355469 246.421875 130.402344 C 246.21875 131.449219 246.050781 132.5 245.910156 133.554688 C 245.773438 134.609375 245.667969 135.667969 245.59375 136.730469 C 245.519531 137.792969 245.480469 138.859375 245.472656 139.921875 C 245.464844 140.988281 245.488281 142.050781 245.542969 143.113281 L 245.542969 307.054688 C 245.535156 308.667969 245.601562 310.273438 245.742188 311.878906 C 245.882812 313.484375 246.097656 315.082031 246.386719 316.664062 C 246.671875 318.25 247.035156 319.820312 247.464844 321.371094 C 247.898438 322.925781 248.402344 324.453125 248.976562 325.960938 C 249.550781 327.464844 250.191406 328.941406 250.902344 330.386719 C 251.613281 331.835938 252.390625 333.246094 253.230469 334.621094 C 254.070312 335.996094 254.972656 337.328125 255.9375 338.621094 C 256.902344 339.914062 257.921875 341.15625 259 342.355469 C 260.082031 343.554688 261.210938 344.699219 262.398438 345.792969 C 263.582031 346.886719 264.816406 347.921875 266.09375 348.902344 C 267.375 349.882812 268.699219 350.800781 270.0625 351.65625 C 271.429688 352.515625 272.832031 353.308594 274.269531 354.039062 C 275.707031 354.765625 277.179688 355.425781 278.679688 356.019531 C 280.175781 356.613281 281.703125 357.136719 283.25 357.585938 C 284.796875 358.039062 286.363281 358.421875 287.945312 358.726562 C 289.527344 359.035156 291.121094 359.269531 292.726562 359.433594 L 798.640625 408.144531 L 292.726562 457.378906 C 291.121094 457.539062 289.527344 457.773438 287.945312 458.082031 C 286.363281 458.390625 284.796875 458.769531 283.25 459.222656 C 281.703125 459.675781 280.175781 460.195312 278.679688 460.789062 C 277.179688 461.382812 275.707031 462.042969 274.269531 462.773438 C 272.832031 463.5 271.429688 464.292969 270.0625 465.152344 C 268.699219 466.007812 267.375 466.925781 266.09375 467.90625 C 264.816406 468.886719 263.582031 469.921875 262.398438 471.015625 C 261.210938 472.109375 260.082031 473.253906 259 474.453125 C 257.921875 475.652344 256.902344 476.894531 255.9375 478.1875 C 254.972656 479.480469 254.070312 480.8125 253.230469 482.1875 C 252.390625 483.5625 251.613281 484.972656 250.902344 486.421875 C 250.191406 487.867188 249.550781 489.34375 248.976562 490.847656 C 248.402344 492.355469 247.898438 493.882812 247.464844 495.4375 C 247.035156 496.988281 246.671875 498.558594 246.386719 500.144531 C 246.097656 501.730469 245.882812 503.324219 245.742188 504.929688 C 245.601562 506.535156 245.535156 508.144531 245.542969 509.753906 L 245.542969 666.886719 C 245.488281 667.949219 245.464844 669.011719 245.472656 670.078125 C 245.480469 671.140625 245.519531 672.207031 245.59375 673.269531 C 245.667969 674.332031 245.773438 675.390625 245.910156 676.445312 C 246.050781 677.5 246.21875 678.550781 246.421875 679.597656 C 246.625 680.644531 246.859375 681.679688 247.125 682.710938 C 247.390625 683.742188 247.6875 684.765625 248.011719 685.78125 C 248.339844 686.792969 248.699219 687.796875 249.089844 688.785156 C 249.476562 689.777344 249.898438 690.757812 250.347656 691.722656 C 250.796875 692.6875 251.273438 693.640625 251.78125 694.574219 C 252.285156 695.511719 252.820312 696.433594 253.386719 697.335938 C 253.949219 698.242188 254.539062 699.128906 255.15625 699.996094 C 255.773438 700.863281 256.414062 701.710938 257.085938 702.539062 C 257.753906 703.371094 258.445312 704.175781 259.164062 704.964844 C 259.882812 705.75 260.625 706.515625 261.390625 707.257812 C 262.15625 707.996094 262.941406 708.714844 263.75 709.410156 C 264.558594 710.101562 265.390625 710.769531 266.238281 711.414062 C 267.089844 712.058594 267.957031 712.671875 268.84375 713.261719 C 269.730469 713.851562 270.636719 714.417969 271.558594 714.949219 C 272.476562 715.484375 273.414062 715.992188 274.367188 716.46875 C 275.320312 716.949219 276.285156 717.398438 277.265625 717.816406 C 278.246094 718.234375 279.238281 718.625 280.242188 718.980469 C 281.246094 719.339844 282.257812 719.667969 283.28125 719.964844 C 284.304688 720.261719 285.335938 720.527344 286.378906 720.761719 C 287.417969 720.996094 288.464844 721.199219 289.515625 721.367188 C 290.566406 721.539062 291.625 721.675781 292.683594 721.78125 C 293.746094 721.886719 294.808594 721.960938 295.871094 722.003906 C 296.9375 722.042969 298.003906 722.050781 299.070312 722.027344 C 300.132812 722.003906 301.199219 721.949219 302.261719 721.859375 C 303.320312 721.769531 304.378906 721.648438 305.433594 721.496094 C 306.488281 721.34375 307.539062 721.160156 308.582031 720.941406 C 309.625 720.726562 310.660156 720.476562 311.691406 720.195312 C 312.71875 719.914062 313.738281 719.605469 314.746094 719.261719 L 1172.960938 429.617188 C 1174.378906 429.40625 1175.769531 429.074219 1177.125 428.613281 C 1178.484375 428.15625 1179.792969 427.582031 1181.046875 426.890625 C 1182.304688 426.199219 1183.488281 425.402344 1184.601562 424.5 C 1185.714844 423.597656 1186.742188 422.605469 1187.679688 421.519531 C 1188.613281 420.433594 1189.449219 419.277344 1190.175781 418.042969 C 1190.90625 416.808594 1191.519531 415.519531 1192.019531 414.179688 C 1192.519531 412.835938 1192.894531 411.460938 1193.148438 410.050781 C 1193.402344 408.640625 1193.53125 407.21875 1193.53125 405.785156 C 1193.53125 404.351562 1193.402344 402.933594 1193.148438 401.523438 C 1192.894531 400.113281 1192.519531 398.734375 1192.019531 397.394531 C 1191.519531 396.050781 1190.90625 394.761719 1190.175781 393.527344 C 1189.449219 392.296875 1188.613281 391.136719 1187.679688 390.050781 C 1186.742188 388.964844 1185.714844 387.972656 1184.601562 387.070312 C 1183.488281 386.167969 1182.304688 385.371094 1181.046875 384.679688 C 1179.792969 383.988281 1178.484375 383.414062 1177.125 382.957031 C 1175.769531 382.5 1174.378906 382.164062 1172.960938 381.953125 Z M 1172.960938 381.953125 " fill-opacity="1" fill-rule="nonzero"/></svg>