<svg xmlns="http://www.w3.org/2000/svg" xmlns:xlink="http://www.w3.org/1999/xlink" width="3125" zoomAndPan="magnify" viewBox="0 0 2343.75 2343.74993" height="3125" preserveAspectRatio="xMidYMid meet" version="1.0"><defs><clipPath id="73cda77954"><path d="M 202.414062 100 L 2141.164062 100 L 2141.164062 2343.5 L 202.414062 2343.5 Z M 202.414062 100 " clip-rule="nonzero"/></clipPath></defs><path fill="#d50000" d="M 1477.90625 202.386719 C 1477.90625 205.726562 1477.785156 209.0625 1477.539062 212.398438 C 1477.292969 215.734375 1476.925781 219.0625 1476.433594 222.386719 C 1475.941406 225.710938 1475.328125 229.023438 1474.59375 232.328125 C 1473.859375 235.632812 1473.003906 238.921875 1472.027344 242.195312 C 1471.046875 245.472656 1469.949219 248.730469 1468.734375 251.96875 C 1467.515625 255.210938 1466.179688 258.425781 1464.726562 261.621094 C 1463.273438 264.820312 1461.699219 267.988281 1460.011719 271.132812 C 1458.324219 274.277344 1456.523438 277.390625 1454.605469 280.476562 C 1452.6875 283.5625 1450.660156 286.617188 1448.515625 289.632812 C 1446.375 292.652344 1444.125 295.636719 1441.761719 298.582031 C 1439.398438 301.527344 1436.929688 304.429688 1434.355469 307.296875 C 1431.78125 310.160156 1429.101562 312.980469 1426.316406 315.757812 C 1423.535156 318.535156 1420.648438 321.265625 1417.667969 323.945312 C 1414.683594 326.628906 1411.601562 329.261719 1408.421875 331.84375 C 1405.242188 334.425781 1401.972656 336.953125 1398.609375 339.425781 C 1395.242188 341.902344 1391.789062 344.320312 1388.246094 346.679688 C 1384.707031 349.042969 1381.078125 351.34375 1377.367188 353.585938 C 1373.652344 355.832031 1369.863281 358.011719 1365.988281 360.128906 C 1362.117188 362.25 1358.167969 364.300781 1354.144531 366.292969 C 1350.121094 368.28125 1346.023438 370.203125 1341.859375 372.058594 C 1337.695312 373.914062 1333.460938 375.699219 1329.164062 377.417969 C 1324.867188 379.136719 1320.511719 380.78125 1316.09375 382.355469 C 1311.675781 383.929688 1307.199219 385.429688 1302.671875 386.859375 C 1298.144531 388.285156 1293.5625 389.640625 1288.9375 390.917969 C 1284.308594 392.195312 1279.632812 393.398438 1274.917969 394.523438 C 1270.199219 395.648438 1265.445312 396.695312 1260.652344 397.664062 C 1255.855469 398.632812 1251.03125 399.523438 1246.171875 400.335938 C 1241.308594 401.144531 1236.425781 401.878906 1231.511719 402.53125 C 1226.597656 403.179688 1221.660156 403.75 1216.707031 404.242188 C 1211.75 404.730469 1206.78125 405.140625 1201.792969 405.46875 C 1196.808594 405.796875 1191.8125 406.039062 1186.808594 406.203125 C 1181.804688 406.367188 1176.800781 406.449219 1171.789062 406.449219 C 1166.78125 406.449219 1161.773438 406.367188 1156.769531 406.203125 C 1151.765625 406.039062 1146.769531 405.796875 1141.785156 405.46875 C 1136.800781 405.140625 1131.828125 404.730469 1126.871094 404.242188 C 1121.917969 403.75 1116.980469 403.179688 1112.070312 402.53125 C 1107.15625 401.878906 1102.269531 401.144531 1097.410156 400.335938 C 1092.550781 399.523438 1087.722656 398.632812 1082.929688 397.664062 C 1078.132812 396.695312 1073.378906 395.648438 1068.660156 394.523438 C 1063.945312 393.398438 1059.269531 392.195312 1054.644531 390.917969 C 1050.015625 389.640625 1045.4375 388.285156 1040.90625 386.859375 C 1036.378906 385.429688 1031.90625 383.929688 1027.484375 382.355469 C 1023.066406 380.78125 1018.710938 379.136719 1014.414062 377.417969 C 1010.117188 375.699219 1005.882812 373.914062 1001.71875 372.058594 C 997.554688 370.203125 993.457031 368.28125 989.433594 366.292969 C 985.410156 364.300781 981.460938 362.25 977.589844 360.128906 C 973.71875 358.011719 969.925781 355.832031 966.214844 353.585938 C 962.5 351.34375 958.875 349.042969 955.332031 346.679688 C 951.789062 344.320312 948.335938 341.902344 944.972656 339.425781 C 941.605469 336.953125 938.335938 334.425781 935.15625 331.84375 C 931.980469 329.261719 928.898438 326.628906 925.914062 323.945312 C 922.929688 321.265625 920.042969 318.535156 917.261719 315.757812 C 914.476562 312.980469 911.796875 310.160156 909.222656 307.296875 C 906.648438 304.429688 904.179688 301.527344 901.816406 298.582031 C 899.457031 295.636719 897.203125 292.652344 895.0625 289.632812 C 892.917969 286.617188 890.890625 283.5625 888.972656 280.476562 C 887.054688 277.390625 885.253906 274.277344 883.566406 271.132812 C 881.878906 267.988281 880.308594 264.820312 878.851562 261.621094 C 877.398438 258.425781 876.0625 255.210938 874.84375 251.96875 C 873.628906 248.730469 872.53125 245.472656 871.554688 242.195312 C 870.574219 238.921875 869.71875 235.632812 868.984375 232.328125 C 868.25 229.023438 867.636719 225.710938 867.144531 222.386719 C 866.652344 219.0625 866.285156 215.734375 866.039062 212.398438 C 865.792969 209.0625 865.671875 205.726562 865.671875 202.386719 C 865.671875 199.046875 865.792969 195.707031 866.039062 192.371094 C 866.285156 189.039062 866.652344 185.707031 867.144531 182.382812 C 867.636719 179.058594 868.25 175.746094 868.984375 172.441406 C 869.71875 169.140625 870.574219 165.851562 871.554688 162.574219 C 872.53125 159.300781 873.628906 156.042969 874.84375 152.800781 C 876.0625 149.5625 877.398438 146.34375 878.851562 143.148438 C 880.308594 139.953125 881.878906 136.78125 883.566406 133.636719 C 885.253906 130.492188 887.054688 127.378906 888.972656 124.292969 C 890.890625 121.207031 892.917969 118.15625 895.0625 115.136719 C 897.203125 112.117188 899.457031 109.136719 901.816406 106.191406 C 904.179688 103.246094 906.648438 100.339844 909.222656 97.476562 C 911.796875 94.609375 914.476562 91.789062 917.261719 89.011719 C 920.042969 86.238281 922.929688 83.507812 925.914062 80.824219 C 928.898438 78.140625 931.980469 75.511719 935.15625 72.929688 C 938.335938 70.347656 941.605469 67.820312 944.96875 65.34375 C 948.335938 62.871094 951.789062 60.453125 955.332031 58.089844 C 958.875 55.730469 962.5 53.425781 966.210938 51.183594 C 969.925781 48.941406 973.71875 46.761719 977.589844 44.640625 C 981.460938 42.523438 985.410156 40.46875 989.433594 38.480469 C 993.457031 36.488281 997.554688 34.566406 1001.71875 32.710938 C 1005.882812 30.855469 1010.117188 29.070312 1014.414062 27.355469 C 1018.710938 25.636719 1023.066406 23.992188 1027.484375 22.417969 C 1031.90625 20.84375 1036.378906 19.339844 1040.90625 17.914062 C 1045.4375 16.484375 1050.015625 15.132812 1054.644531 13.855469 C 1059.269531 12.578125 1063.945312 11.375 1068.660156 10.25 C 1073.378906 9.125 1078.132812 8.078125 1082.929688 7.109375 C 1087.722656 6.140625 1092.550781 5.25 1097.410156 4.4375 C 1102.269531 3.625 1107.15625 2.894531 1112.070312 2.242188 C 1116.980469 1.589844 1121.917969 1.019531 1126.871094 0.53125 C 1131.828125 0.0390625 1136.800781 -0.367188 1141.785156 -0.695312 C 1146.769531 -1.023438 1151.765625 -1.269531 1156.769531 -1.433594 C 1161.773438 -1.597656 1166.78125 -1.679688 1171.789062 -1.679688 C 1176.800781 -1.679688 1181.804688 -1.597656 1186.808594 -1.433594 C 1191.8125 -1.269531 1196.808594 -1.023438 1201.792969 -0.695312 C 1206.78125 -0.367188 1211.75 0.0390625 1216.707031 0.53125 C 1221.660156 1.019531 1226.597656 1.589844 1231.511719 2.242188 C 1236.425781 2.894531 1241.308594 3.625 1246.171875 4.4375 C 1251.03125 5.25 1255.855469 6.140625 1260.652344 7.109375 C 1265.445312 8.078125 1270.199219 9.125 1274.917969 10.25 C 1279.632812 11.375 1284.308594 12.578125 1288.9375 13.855469 C 1293.5625 15.132812 1298.144531 16.484375 1302.671875 17.914062 C 1307.199219 19.339844 1311.675781 20.84375 1316.09375 22.417969 C 1320.511719 23.992188 1324.867188 25.636719 1329.164062 27.355469 C 1333.460938 29.070312 1337.695312 30.855469 1341.859375 32.710938 C 1346.023438 34.566406 1350.121094 36.488281 1354.144531 38.480469 C 1358.167969 40.46875 1362.117188 42.523438 1365.988281 44.640625 C 1369.863281 46.761719 1373.652344 48.941406 1377.367188 51.183594 C 1381.078125 53.425781 1384.707031 55.730469 1388.246094 58.089844 C 1391.789062 60.453125 1395.242188 62.871094 1398.609375 65.34375 C 1401.972656 67.820312 1405.242188 70.347656 1408.421875 72.929688 C 1411.601562 75.511719 1414.683594 78.140625 1417.667969 80.824219 C 1420.652344 83.507812 1423.535156 86.238281 1426.316406 89.011719 C 1429.101562 91.789062 1431.78125 94.609375 1434.355469 97.476562 C 1436.929688 100.339844 1439.398438 103.246094 1441.761719 106.191406 C 1444.125 109.136719 1446.375 112.117188 1448.515625 115.136719 C 1450.660156 118.15625 1452.6875 121.207031 1454.605469 124.292969 C 1456.523438 127.378906 1458.324219 130.492188 1460.011719 133.636719 C 1461.699219 136.78125 1463.273438 139.953125 1464.726562 143.148438 C 1466.179688 146.34375 1467.515625 149.5625 1468.734375 152.800781 C 1469.949219 156.042969 1471.046875 159.300781 1472.027344 162.574219 C 1473.003906 165.851562 1473.859375 169.140625 1474.59375 172.441406 C 1475.328125 175.746094 1475.941406 179.058594 1476.433594 182.382812 C 1476.925781 185.707031 1477.292969 189.039062 1477.539062 192.371094 C 1477.785156 195.707031 1477.90625 199.046875 1477.90625 202.386719 Z M 1477.90625 202.386719 " fill-opacity="1" fill-rule="nonzero"/><g clip-path="url(#73cda77954)"><path fill="#82b1ff" d="M 1630.96875 2141 C 1391.175781 1993.050781 1656.476562 1493.09375 1753.414062 1329.84375 C 2013.613281 1289.03125 2141.164062 1156.386719 2141.164062 1023.746094 C 2141.164062 804.375 1804.433594 615.617188 1360.5625 574.804688 C 1370.765625 554.398438 1375.867188 533.992188 1375.867188 513.585938 C 1375.867188 426.855469 1335.054688 421.753906 1324.847656 340.128906 C 1324.847656 329.925781 1324.847656 319.722656 1324.847656 304.417969 C 1238.113281 243.199219 1171.789062 100.355469 1171.789062 100.355469 C 1171.789062 100.355469 1105.464844 253.402344 1018.730469 304.417969 C 1018.730469 319.722656 1018.730469 340.128906 1023.832031 355.433594 L 1018.730469 355.433594 C 1018.730469 426.855469 967.710938 426.855469 967.710938 508.484375 C 967.710938 528.890625 972.8125 549.296875 983.015625 569.703125 C 539.144531 610.515625 202.414062 799.273438 202.414062 1018.644531 C 202.414062 1156.386719 324.863281 1278.828125 564.65625 1324.742188 C 595.265625 1539.007812 758.53125 2345.0625 1528.925781 2345.0625 C 1937.085938 2345.0625 2090.144531 2141 2090.144531 2141 C 2090.144531 2141 1906.472656 2314.453125 1630.96875 2141 Z M 1630.96875 2141 " fill-opacity="1" fill-rule="nonzero"/><path fill="#82b1ff" d="M 1630.96875 2141 C 1391.175781 1993.050781 1656.476562 1493.09375 1753.414062 1329.84375 C 2013.613281 1289.03125 2141.164062 1156.386719 2141.164062 1023.746094 C 2141.164062 804.375 1804.433594 615.617188 1360.5625 574.804688 C 1370.765625 554.398438 1375.867188 533.992188 1375.867188 513.585938 C 1375.867188 426.855469 1335.054688 421.753906 1324.847656 340.128906 C 1324.847656 329.925781 1324.847656 319.722656 1324.847656 304.417969 C 1238.113281 243.199219 1171.789062 100.355469 1171.789062 100.355469 C 1171.789062 100.355469 1105.464844 253.402344 1018.730469 304.417969 C 1018.730469 319.722656 1018.730469 340.128906 1023.832031 355.433594 L 1018.730469 355.433594 C 1018.730469 426.855469 967.710938 426.855469 967.710938 508.484375 C 967.710938 528.890625 972.8125 549.296875 983.015625 569.703125 C 539.144531 610.515625 202.414062 799.273438 202.414062 1018.644531 C 202.414062 1156.386719 324.863281 1278.828125 564.65625 1324.742188 C 595.265625 1539.007812 758.53125 2345.0625 1528.925781 2345.0625 C 1937.085938 2345.0625 2090.144531 2141 2090.144531 2141 C 2090.144531 2141 1906.472656 2314.453125 1630.96875 2141 Z M 1630.96875 2141 " fill-opacity="1" fill-rule="nonzero"/></g><path fill="#ffc107" d="M 1171.789062 702.34375 C 1171.789062 702.34375 1350.359375 702.34375 1324.847656 947.222656 C 1508.519531 804.375 1630.96875 814.578125 1630.96875 814.578125 C 1630.96875 727.851562 1579.949219 712.546875 1579.949219 712.546875 C 1579.949219 712.546875 1442.195312 671.734375 1171.789062 702.34375 Z M 1171.789062 702.34375 " fill-opacity="1" fill-rule="nonzero"/><path fill="#d50000" d="M 1671.78125 2161.40625 C 1661.578125 2156.304688 1646.273438 2146.101562 1630.96875 2141 C 1559.539062 2095.085938 1534.03125 2023.664062 1534.03125 1931.832031 C 1391.175781 2120.59375 1120.769531 2161.40625 988.117188 2166.507812 C 1095.261719 2253.234375 1238.117188 2314.453125 1401.378906 2334.859375 C 1493.214844 2299.148438 1590.152344 2243.03125 1671.78125 2161.40625 Z M 1671.78125 2161.40625 " fill-opacity="1" fill-rule="nonzero"/><path fill="#263238" d="M 1324.847656 304.417969 C 1324.847656 304.417969 1329.949219 319.722656 1340.15625 345.230469 C 1350.359375 370.738281 1370.765625 401.347656 1391.175781 447.261719 C 1401.378906 472.769531 1406.480469 498.28125 1406.480469 528.890625 C 1406.480469 569.703125 1391.175781 600.3125 1365.664062 630.921875 C 1340.15625 656.429688 1309.542969 681.9375 1278.929688 692.140625 C 1243.21875 707.445312 1212.605469 712.546875 1171.789062 712.546875 L 1146.28125 712.546875 C 1136.074219 712.546875 1125.871094 712.546875 1115.667969 707.445312 C 1100.363281 702.34375 1079.953125 697.242188 1064.648438 692.140625 C 1028.933594 676.835938 998.324219 656.429688 977.914062 630.921875 C 952.40625 605.414062 937.097656 569.703125 937.097656 533.992188 L 937.097656 508.484375 C 937.097656 503.382812 937.097656 493.179688 942.199219 488.078125 C 947.300781 472.769531 947.300781 462.566406 952.40625 447.261719 C 972.8125 401.347656 993.21875 370.738281 1003.425781 345.230469 C 1013.628906 319.722656 1018.730469 304.417969 1018.730469 304.417969 C 1018.730469 304.417969 1018.730469 309.519531 1018.730469 314.621094 C 1018.730469 319.722656 1023.832031 335.027344 1023.832031 345.230469 C 1023.832031 375.839844 1013.628906 411.550781 1008.527344 457.464844 C 1008.527344 467.667969 1008.527344 477.871094 1008.527344 488.078125 C 1008.527344 493.179688 1008.527344 498.28125 1008.527344 503.382812 L 1008.527344 513.585938 C 1013.628906 528.890625 1023.832031 544.195312 1039.136719 559.5 C 1054.445312 574.804688 1074.851562 585.007812 1095.261719 590.109375 C 1105.464844 595.210938 1115.667969 595.210938 1130.972656 600.3125 C 1136.074219 600.3125 1141.179688 600.3125 1146.28125 600.3125 C 1151.382812 600.3125 1161.585938 600.3125 1166.6875 600.3125 C 1187.09375 600.3125 1212.605469 595.210938 1238.117188 590.109375 C 1258.523438 585.007812 1278.929688 574.804688 1294.238281 559.5 C 1309.542969 544.195312 1319.746094 528.890625 1324.847656 513.585938 C 1329.949219 493.179688 1329.949219 472.773438 1329.949219 452.363281 C 1324.847656 411.550781 1319.746094 370.738281 1319.746094 345.230469 C 1319.746094 319.722656 1324.847656 304.417969 1324.847656 304.417969 Z M 1324.847656 304.417969 " fill-opacity="1" fill-rule="nonzero"/><path fill="#2979ff" d="M 1763.617188 1324.742188 C 1763.617188 1324.742188 1758.515625 1324.742188 1758.515625 1324.742188 C 1743.210938 1350.25 1727.90625 1380.859375 1707.496094 1416.570312 C 1697.292969 1416.570312 1681.988281 1416.570312 1666.679688 1411.46875 C 1641.171875 1406.367188 1610.558594 1401.265625 1585.050781 1391.0625 C 1554.4375 1380.859375 1523.824219 1370.65625 1493.214844 1355.351562 C 1462.601562 1340.046875 1426.886719 1324.742188 1396.277344 1304.335938 C 1380.96875 1294.132812 1365.664062 1283.929688 1350.359375 1273.726562 C 1335.054688 1263.523438 1319.746094 1248.214844 1304.441406 1238.011719 C 1273.828125 1212.503906 1243.21875 1186.996094 1212.605469 1161.488281 C 1202.402344 1151.285156 1187.097656 1141.082031 1176.890625 1125.777344 C 1166.6875 1135.980469 1151.382812 1146.183594 1141.179688 1161.488281 C 1110.566406 1186.996094 1079.953125 1212.503906 1049.34375 1238.011719 C 1034.035156 1248.214844 1018.730469 1263.523438 1003.425781 1273.726562 C 988.117188 1283.929688 972.8125 1294.132812 957.507812 1304.335938 C 926.894531 1324.742188 891.179688 1340.046875 860.570312 1355.351562 C 829.957031 1370.65625 799.347656 1380.859375 768.734375 1391.0625 C 738.121094 1401.265625 707.511719 1406.367188 687.101562 1411.46875 C 661.59375 1416.570312 641.183594 1416.570312 625.878906 1421.671875 C 610.574219 1421.671875 600.367188 1426.773438 590.164062 1426.773438 C 579.960938 1385.960938 574.859375 1350.25 574.859375 1324.742188 C 585.0625 1324.742188 600.367188 1324.742188 620.777344 1324.742188 C 636.082031 1324.742188 661.59375 1324.742188 682 1319.640625 C 702.410156 1314.539062 727.917969 1314.539062 753.429688 1309.4375 C 778.9375 1299.234375 809.550781 1294.132812 840.160156 1283.929688 C 870.773438 1273.726562 901.386719 1263.523438 931.996094 1243.117188 C 947.304688 1232.910156 962.609375 1227.808594 977.914062 1217.605469 C 993.222656 1207.402344 1008.527344 1197.199219 1023.832031 1186.996094 C 1054.445312 1166.589844 1085.054688 1146.183594 1115.667969 1120.675781 C 1176.890625 1074.761719 1238.117188 1023.746094 1294.238281 977.832031 C 1324.847656 957.425781 1350.359375 931.917969 1380.96875 916.613281 C 1406.480469 896.207031 1437.09375 880.902344 1462.601562 865.597656 C 1488.113281 850.289062 1513.621094 840.085938 1534.03125 829.882812 C 1559.539062 824.78125 1574.84375 814.578125 1595.253906 814.578125 C 1630.96875 809.476562 1646.273438 809.476562 1646.273438 809.476562 C 1646.273438 809.476562 1625.867188 814.578125 1595.253906 819.679688 C 1579.949219 824.78125 1559.539062 829.882812 1539.132812 840.085938 C 1518.722656 850.289062 1493.214844 860.496094 1472.804688 875.800781 C 1447.296875 891.105469 1421.785156 911.511719 1401.378906 931.917969 C 1375.867188 952.324219 1350.359375 977.832031 1324.847656 1003.339844 C 1294.238281 1033.949219 1263.625 1064.558594 1227.910156 1095.167969 C 1238.117188 1105.371094 1248.320312 1110.472656 1263.625 1120.675781 C 1294.238281 1141.082031 1324.847656 1166.589844 1355.460938 1186.996094 C 1370.765625 1197.199219 1386.074219 1207.402344 1401.378906 1217.605469 C 1416.683594 1227.808594 1431.992188 1232.910156 1447.296875 1243.117188 C 1477.90625 1258.421875 1508.519531 1268.625 1539.132812 1283.929688 C 1569.742188 1294.132812 1600.355469 1299.234375 1625.867188 1309.4375 C 1651.375 1314.539062 1676.886719 1319.640625 1697.292969 1319.640625 C 1717.699219 1324.742188 1738.109375 1319.640625 1758.515625 1324.742188 C 1743.210938 1324.742188 1753.414062 1324.742188 1763.617188 1324.742188 Z M 1579.949219 712.546875 C 1579.949219 712.546875 1472.804688 661.53125 1396.277344 574.804688 C 1391.175781 595.210938 1380.96875 610.515625 1365.664062 625.820312 C 1340.15625 651.328125 1309.542969 676.835938 1278.929688 687.039062 C 1268.726562 692.140625 1253.421875 692.140625 1243.21875 697.242188 C 1380.96875 687.039062 1503.417969 687.039062 1579.949219 712.546875 Z M 1146.28125 707.445312 C 1136.074219 707.445312 1125.871094 707.445312 1115.667969 702.34375 C 1100.363281 697.242188 1079.953125 692.140625 1064.648438 687.039062 C 1028.933594 671.734375 998.324219 651.328125 977.914062 625.820312 C 962.609375 610.515625 952.40625 590.109375 947.300781 569.703125 C 865.671875 671.734375 717.714844 773.765625 508.53125 814.578125 C 508.53125 814.578125 840.160156 743.15625 1146.28125 707.445312 Z M 1146.28125 707.445312 " fill-opacity="1" fill-rule="nonzero"/></svg>