<svg xmlns="http://www.w3.org/2000/svg" xmlns:xlink="http://www.w3.org/1999/xlink" width="1800" zoomAndPan="magnify" viewBox="0 0 1350 1349.999938" height="1800" preserveAspectRatio="xMidYMid meet" version="1.0"><defs><clipPath id="7b154f3f7d"><path d="M 44.183594 0 L 1298 0 L 1298 1342 L 44.183594 1342 Z M 44.183594 0 " clip-rule="nonzero"/></clipPath></defs><path fill="#ffffff" d="M 327.007812 370.105469 L 974.617188 370.105469 C 986.984375 370.105469 997.023438 360.078125 997.023438 347.699219 C 997.023438 335.320312 986.984375 325.292969 974.617188 325.292969 L 327.007812 325.292969 C 314.640625 325.292969 304.601562 335.320312 304.601562 347.699219 C 304.601562 360.078125 314.640625 370.105469 327.007812 370.105469 " fill-opacity="1" fill-rule="nonzero"/><path fill="#ffffff" d="M 974.617188 441.695312 L 683.675781 441.695312 C 671.3125 441.695312 661.273438 451.722656 661.273438 464.101562 C 661.273438 476.480469 671.3125 486.511719 683.675781 486.511719 L 974.617188 486.511719 C 986.984375 486.511719 997.023438 476.480469 997.023438 464.101562 C 997.023438 451.722656 986.984375 441.695312 974.617188 441.695312 " fill-opacity="1" fill-rule="nonzero"/><path fill="#ffffff" d="M 327.007812 486.511719 L 538.402344 486.511719 C 550.765625 486.511719 560.804688 476.480469 560.804688 464.101562 C 560.804688 451.722656 550.765625 441.695312 538.402344 441.695312 L 327.007812 441.695312 C 314.640625 441.695312 304.601562 451.722656 304.601562 464.101562 C 304.601562 476.480469 314.640625 486.511719 327.007812 486.511719 " fill-opacity="1" fill-rule="nonzero"/><path fill="#ffffff" d="M 974.617188 558.101562 L 856.742188 558.101562 C 844.378906 558.101562 834.351562 568.117188 834.351562 580.496094 C 834.351562 592.875 844.378906 602.902344 856.742188 602.902344 L 974.617188 602.902344 C 986.984375 602.902344 997.023438 592.875 997.023438 580.496094 C 997.023438 568.117188 986.984375 558.101562 974.617188 558.101562 " fill-opacity="1" fill-rule="nonzero"/><path fill="#ffffff" d="M 327.007812 602.902344 L 722.480469 602.902344 C 734.84375 602.902344 744.867188 592.875 744.867188 580.496094 C 744.867188 568.117188 734.84375 558.101562 722.480469 558.101562 L 327.007812 558.101562 C 314.640625 558.101562 304.601562 568.117188 304.601562 580.496094 C 304.601562 592.875 314.640625 602.902344 327.007812 602.902344 " fill-opacity="1" fill-rule="nonzero"/><path fill="#ffffff" d="M 715.007812 674.492188 L 464.269531 674.492188 C 451.90625 674.492188 441.867188 684.519531 441.867188 696.898438 C 441.867188 709.277344 451.90625 719.304688 464.269531 719.304688 L 715.007812 719.304688 C 727.371094 719.304688 737.410156 709.277344 737.410156 696.898438 C 737.410156 684.519531 727.371094 674.492188 715.007812 674.492188 " fill-opacity="1" fill-rule="nonzero"/><path fill="#ffffff" d="M 327.007812 719.304688 L 386.691406 719.304688 C 399.054688 719.304688 409.082031 709.277344 409.082031 696.898438 C 409.082031 684.519531 399.054688 674.492188 386.691406 674.492188 L 327.007812 674.492188 C 314.640625 674.492188 304.601562 684.519531 304.601562 696.898438 C 304.601562 709.277344 314.640625 719.304688 327.007812 719.304688 " fill-opacity="1" fill-rule="nonzero"/><path fill="#ffffff" d="M 520.96875 790.882812 L 327.007812 790.882812 C 314.640625 790.882812 304.601562 800.910156 304.601562 813.289062 C 304.601562 825.667969 314.640625 835.695312 327.007812 835.695312 L 520.96875 835.695312 C 533.332031 835.695312 543.371094 825.667969 543.371094 813.289062 C 543.371094 800.910156 533.332031 790.882812 520.96875 790.882812 " fill-opacity="1" fill-rule="nonzero"/><path fill="#ffffff" d="M 520.96875 907.285156 L 327.007812 907.285156 C 314.640625 907.285156 304.601562 917.316406 304.601562 929.695312 C 304.601562 942.074219 314.640625 952.101562 327.007812 952.101562 L 520.96875 952.101562 C 533.332031 952.101562 543.371094 942.074219 543.371094 929.695312 C 543.371094 917.316406 533.332031 907.285156 520.96875 907.285156 " fill-opacity="1" fill-rule="nonzero"/><path fill="#ffffff" d="M 953.734375 815.960938 C 891.035156 815.960938 840.023438 866.980469 840.023438 929.695312 C 840.023438 942.074219 850.050781 952.101562 862.425781 952.101562 C 874.789062 952.101562 884.828125 942.074219 884.828125 929.695312 C 884.828125 891.6875 915.738281 860.773438 953.734375 860.773438 C 966.101562 860.773438 976.140625 850.746094 976.140625 838.367188 C 976.140625 825.988281 966.101562 815.960938 953.734375 815.960938 " fill-opacity="1" fill-rule="nonzero"/><g clip-path="url(#7b154f3f7d)"><path fill="#ffffff" d="M 203.191406 1117.6875 L 203.191406 250.726562 L 875.734375 250.726562 C 888.097656 250.726562 898.136719 240.699219 898.136719 228.320312 L 898.136719 147.734375 C 898.136719 90.976562 944.308594 44.796875 1001.058594 44.796875 C 1057.804688 44.796875 1103.976562 90.976562 1103.976562 147.734375 L 1103.976562 719.765625 C 1061.664062 689.398438 1009.78125 671.527344 953.722656 671.527344 C 811.183594 671.527344 695.617188 787.113281 695.617188 929.695312 C 695.617188 1003.800781 726.847656 1070.613281 776.863281 1117.6875 Z M 89.414062 147.734375 C 89.414062 90.976562 135.585938 44.796875 192.347656 44.796875 L 895.1875 44.796875 C 869.285156 71.417969 853.332031 107.75 853.332031 147.734375 L 853.332031 205.910156 L 89.414062 205.910156 Z M 953.722656 1112.167969 C 852.960938 1112.167969 771.28125 1030.472656 771.28125 929.695312 C 771.28125 828.914062 852.960938 747.207031 953.722656 747.207031 C 1054.496094 747.207031 1136.175781 828.914062 1136.175781 929.695312 C 1136.175781 1030.472656 1054.496094 1112.167969 953.722656 1112.167969 Z M 1283.863281 1242.050781 L 1155.296875 1090.9375 C 1190.675781 1046.75 1211.839844 990.691406 1211.839844 929.695312 C 1211.839844 865.015625 1188.070312 805.90625 1148.785156 760.605469 L 1148.785156 147.734375 C 1148.785156 66.257812 1082.507812 -0.0195312 1001.058594 -0.0195312 L 192.347656 -0.0195312 C 110.882812 -0.0195312 44.609375 66.257812 44.609375 147.734375 L 44.609375 228.320312 C 44.609375 240.699219 54.648438 250.726562 67.011719 250.726562 L 158.382812 250.726562 L 158.382812 1140.09375 C 158.382812 1152.472656 168.421875 1162.5 180.789062 1162.5 L 842.066406 1162.5 C 875.851562 1178.75 913.734375 1187.847656 953.722656 1187.847656 C 995.757812 1187.847656 1035.441406 1177.792969 1070.5 1159.972656 L 1186.578125 1316.257812 C 1206.757812 1344.070312 1245.894531 1349.820312 1273.210938 1328.96875 C 1300.53125 1308.132812 1305.347656 1268.878906 1283.863281 1242.050781 " fill-opacity="1" fill-rule="nonzero"/></g></svg>